<?xml version="1.0" encoding="UTF-8" standalone="no"?>
<svg width="239px" height="298px" viewBox="0 0 239 298" version="1.1" xmlns="http://www.w3.org/2000/svg" xmlns:xlink="http://www.w3.org/1999/xlink" xmlns:sketch="http://www.bohemiancoding.com/sketch/ns">
    <!-- Generator: Sketch 3.1 (8751) - http://www.bohemiancoding.com/sketch -->
    <title>faux-feathers + Group + P.E. BUTLER III + Oval 2</title>
    <desc>Created with Sketch.</desc>
    <defs></defs>
    <g id="Page-1" stroke="none" stroke-width="1" fill="none" fill-rule="evenodd" sketch:type="MSPage">
        <g id="Artboard-1" sketch:type="MSArtboardGroup" transform="translate(-25.000000, -36.000000)">
            <g id="faux-feathers-+-Group-+-P.E.-BUTLER-III-+-Oval-2" sketch:type="MSLayerGroup" transform="translate(27.000000, 38.000000)">
                <g id="faux-feathers" transform="translate(7.000000, 216.000000)" fill="#4A4A4A" sketch:type="MSShapeGroup">
                    <path d="M4.5,0 C4.5,0 8.33902995,2.07535807 9.67529297,3.41162109 C11.0056966,4.74202474 12.5,8 12.5,8 L12.5,0 L4.5,0 Z" id="Rectangle-7"></path>
                    <path d="M0.5,4 C0.5,4 4.33902995,6.07535807 5.67529297,7.41162109 C7.00569661,8.74202474 8.5,12 8.5,12 L8.5,4 L0.5,4 Z" id="Rectangle-9"></path>
                    <path d="M2.5,2 C2.5,2 6.33902995,4.07535807 7.67529297,5.41162109 C9.00569661,6.74202474 10.5,10 10.5,10 L10.5,2 L2.5,2 Z" id="Rectangle-8"></path>
                </g>
                <g id="Group-+-P.E.-BUTLER-III">
                    <g id="Group">
                        <path d="M117.5,235 C182.393458,235 235,182.393458 235,117.5 C235,52.6065419 182.393458,0 117.5,0 C52.6065419,0 0,52.6065419 0,117.5 C0,182.393458 52.6065419,235 117.5,235 Z" id="Oval-1" stroke="#4A4A4A" stroke-width="3" fill-opacity="0.600000381" sketch:type="MSShapeGroup"></path>
                        <rect id="Rectangle-1" fill="#4A4A4A" sketch:type="MSShapeGroup" transform="translate(118.000000, 117.500000) rotate(45.000000) translate(-118.000000, -117.500000) " x="117" y="-28" width="2" height="291"></rect>
                        <rect id="Rectangle-2" fill="#4A4A4A" sketch:type="MSShapeGroup" transform="translate(118.000000, 117.500000) rotate(135.000000) translate(-118.000000, -117.500000) " x="117" y="-28" width="2" height="291"></rect>
                        <text id="E" fill="#4A4A4A" sketch:type="MSTextLayer" font-family="Norwester" font-size="64" font-style="condensed" font-weight="normal">
                            <tspan x="157" y="143" fill="#F6A623">E</tspan>
                        </text>
                        <text id="B" fill="#4A4A4A" sketch:type="MSTextLayer" font-family="Norwester" font-size="64" font-style="condensed" font-weight="normal">
                            <tspan x="103" y="77" fill="#F6A623">B</tspan>
                        </text>
                        <text id="P" fill="#4A4A4A" sketch:type="MSTextLayer" font-family="Norwester" font-size="64" font-style="condensed" font-weight="normal">
                            <tspan x="49" y="143" fill="#F6A623">P</tspan>
                        </text>
                        <text id="III" sketch:type="MSTextLayer" font-family="Norwester" font-size="64" font-style="condensed" font-weight="normal" fill="#4A4A4A">
                            <tspan x="96" y="209">III</tspan>
                        </text>
                    </g>
                    <text id="P.E.-BUTLER-III" sketch:type="MSTextLayer" font-family="Norwester" font-size="36" font-style="condensed" font-weight="normal" fill="#4A4A4A">
                        <tspan x="22" y="296">P.E. BUTLER III</tspan>
                    </text>
                    <polygon id="Triangle-1" fill="#4A4A4A" sketch:type="MSShapeGroup" transform="translate(223.135328, 12.235327) rotate(-320.000000) translate(-223.135328, -12.235327) " points="223.135328 8.23532669 227.135328 16.2353267 219.135328 16.2353267 "></polygon>
                </g>
                <circle id="Oval-2" fill="#4A4A4A" sketch:type="MSShapeGroup" cx="117.5" cy="117.5" r="6.5"></circle>
            </g>
        </g>
    </g>
</svg>